<svg xmlns="http://www.w3.org/2000/svg" xmlns:svg="http://www.w3.org/2000/svg" width="16" height="auto" enable-background="new 0 0 918.6 515.1" viewBox="0 0 918.6 515.1"><style type="text/css">.st0{fill:#000}</style><g class="layer"><title>Layer 1</title><g id="XMLID_1_"><path id="svg_1" fill="#000" d="m918.6,515.1l-918.6,0c14.7,-155.7 103.7,-288.7 235.1,-359.9l-76.2,-132c-4.3,-7.4 -1.8,-16.8 5.6,-21.1s16.8,-1.8 21.1,5.6l77.2,133.7c58.9,-26.9 125.2,-41.9 196.5,-41.9s137.6,15 196.5,41.9l77.2,-133.7c4.2,-7.4 13.7,-9.9 21,-5.6s9.9,13.7 5.6,21.1l-76.2,132c131.5,71.2 220.5,204.2 235.2,359.9zm-248.5,-129c21.3,0 38.6,-17.3 38.5,-38.5c0,-21.2 -17.2,-38.5 -38.5,-38.5c-21.2,0 -38.5,17.2 -38.5,38.5c0,21.2 17.2,38.5 38.5,38.5zm-421.7,0c21.3,0 38.6,-17.3 38.5,-38.5c0,-21.2 -17.2,-38.5 -38.5,-38.5c-21.2,0 -38.5,17.2 -38.5,38.5c0,21.2 17.2,38.5 38.5,38.5z" class="st0"/></g></g></svg>