<svg xmlns="http://www.w3.org/2000/svg" xmlns:svg="http://www.w3.org/2000/svg" width="16" height="16" version="1.1" viewBox="0 0 16 16" xml:space="preserve"><g class="layer"><title>Layer 1</title><path id="svg_1" d="m8,16c-4.41,0 -8,-3.59 -8,-8s3.59,-8 8,-8s8,3.59 8,8s-3.59,8 -8,8zm0,-15c-3.86,0 -7,3.14 -7,7c0,3.86 3.14,7 7,7c3.86,0 7,-3.14 7,-7c0,-3.86 -3.14,-7 -7,-7z"/><path id="svg_2" d="m8,16c-2.24,0 -4,-3.51 -4,-8c0,-4.49 1.76,-8 4,-8s4,3.51 4,8c0,4.49 -1.76,8 -4,8zm0,-15c-1.42,0 -3,2.88 -3,7s1.58,7 3,7s3,-2.87 3,-7s-1.58,-7 -3,-7z"/><path id="svg_3" d="m15.01,4.94c0,0.27 -0.22,0.5 -0.49,0.5l-13.04,0c-0.27,0 -0.49,-0.23 -0.49,-0.5l0,0c0,-0.28 0.22,-0.5 0.49,-0.5l13.04,0c0.27,0 0.49,0.22 0.49,0.5l0,0z"/><path id="svg_4" d="m15.01,10.94c0,0.27 -0.22,0.5 -0.49,0.5l-13.04,0c-0.27,0 -0.49,-0.23 -0.49,-0.5l0,0c0,-0.28 0.22,-0.5 0.49,-0.5l13.04,0c0.27,0 0.49,0.22 0.49,0.5l0,0z"/></g></svg>